<svg version="1.1" viewBox="0.0 0.0 960.0 540.0" fill="none" stroke="none" stroke-linecap="square" stroke-miterlimit="10" xmlns:xlink="http://www.w3.org/1999/xlink" xmlns="http://www.w3.org/2000/svg"><clipPath id="p.0"><path d="m0 0l960.0 0l0 540.0l-960.0 0l0 -540.0z" clip-rule="nonzero"/></clipPath><g clip-path="url(#p.0)"><path fill="#31394d" d="m0 0l960.0 0l0 540.0l-960.0 0z" fill-rule="evenodd"/><path fill="#ffffff" d="m-0.0131233595 0l960.02625 0l-0.026245117 186.12599l-960.0 275.61676z" fill-rule="evenodd"/><path fill="#000000" fill-opacity="0.0" d="m32.72441 56.664043l894.55115 0l0 134.64566l-894.55115 0z" fill-rule="evenodd"/><path fill="#002f4a" d="m55.646286 78.61904l-8.265625 0.296875l-1.671875 10.03125l-3.171875 0l0.8125 -12.875l29.90625 0l0.578125 12.875l-3.015625 0l-1.59375 -10.03125l-8.296875 -0.296875l0 30.296875l6.8125 0.46875l0 2.359375l-18.328125 0l0 -2.359375l6.234375 -0.46875l0 -30.296875zm24.04419 -2.6875l-4.03125 -0.53125l0 -2.0625l7.828125 -0.90625l0.09375 0l1.0625 0.71875l0 11.140625l-0.203125 4.078125q1.546875 -1.390625 4.234375 -2.640625q2.6875 -1.25 5.421875 -1.25q3.015625 0 4.6875 1.15625q1.6875 1.15625 2.359375 3.53125q0.671875 2.375 0.671875 6.40625l0 13.390625l3.359375 0.421875l0 2.359375l-11.46875 0l0 -2.359375l3.125 -0.421875l0 -13.4375q0 -2.84375 -0.390625 -4.4375q-0.375 -1.609375 -1.4375 -2.40625q-1.046875 -0.796875 -3.171875 -0.796875q-1.71875 0 -3.6875 0.875q-1.96875 0.859375 -3.453125 2.015625l0 18.1875l3.3125 0.421875l0 2.359375l-11.1875 0l0 -2.359375l2.875 -0.375l0 -33.078125zm40.850815 36.34375q-5.8125 0 -8.859375 -3.796875q-3.046875 -3.796875 -3.046875 -10.125q0 -4.171875 1.578125 -7.34375q1.59375 -3.171875 4.4375 -4.890625q2.859375 -1.734375 6.515625 -1.734375q4.46875 0 6.9375 2.46875q2.46875 2.46875 2.609375 7.078125q0 2.9375 -0.328125 4.46875l-16.515625 0q0.09375 4.75 2.203125 7.65625q2.109375 2.90625 6.0 2.90625q1.921875 0 4.0 -0.6875q2.09375 -0.703125 3.25 -1.671875l0.90625 2.109375q-1.390625 1.453125 -4.125 2.515625q-2.734375 1.046875 -5.5625 1.046875zm4.890625 -16.421875q0.15625 -1.0 0.15625 -2.0625q-0.0625 -3.125 -1.328125 -4.921875q-1.265625 -1.796875 -4.0 -1.796875q-2.796875 0 -4.453125 2.015625q-1.65625 2.015625 -1.890625 6.765625l11.515625 0zm25.253708 12.046875q0.484375 0.71875 2.03125 1.296875q1.5625 0.578125 3.296875 0.578125q2.734375 0 4.03125 -1.046875q1.296875 -1.0625 1.296875 -2.9375q0 -1.296875 -0.828125 -2.25q-0.8125 -0.96875 -2.28125 -1.703125q-1.453125 -0.75 -4.1875 -1.8125q-3.703125 -1.390625 -5.40625 -3.328125q-1.703125 -1.9375 -1.703125 -5.109375q0 -2.109375 1.265625 -3.6875q1.28125 -1.59375 3.515625 -2.484375q2.234375 -0.890625 4.96875 -0.890625q2.203125 0 3.859375 0.34375q1.65625 0.328125 2.65625 0.671875q1.015625 0.328125 1.359375 0.421875l0 5.953125l-2.9375 0l-0.953125 -3.546875q-0.296875 -0.578125 -1.546875 -0.984375q-1.234375 -0.40625 -2.78125 -0.40625q-2.15625 0 -3.484375 0.96875q-1.3125 0.953125 -1.3125 2.578125q0 1.4375 0.6875 2.375q0.703125 0.9375 1.75 1.515625q1.0625 0.578125 2.890625 1.34375l0.96875 0.390625q2.6875 1.046875 4.359375 2.015625q1.6875 0.953125 2.8125 2.515625q1.125 1.5625 1.125 3.8125q0 3.546875 -2.765625 5.671875q-2.75 2.109375 -7.546875 2.109375q-2.359375 0 -4.9375 -0.640625q-2.5625 -0.65625 -4.1875 -1.328125l0 -6.140625l3.125 0l0.859375 3.734375zm27.990051 4.328125q-2.75 0 -4.09375 -1.25q-1.34375 -1.25 -1.34375 -4.28125l0 -18.421875l-3.453125 0l0 -2.15625q0.25 -0.0625 1.34375 -0.34375q1.109375 -0.28125 1.484375 -0.53125q0.78125 -0.421875 1.203125 -1.71875q0.390625 -0.921875 0.90625 -2.9375q0.53125 -2.015625 0.640625 -2.390625l2.828125 0l0.09375 6.90625l8.015625 0l0 3.171875l-8.015625 0l0 14.734375q0 2.734375 0.15625 3.84375q0.171875 1.09375 0.71875 1.4375q0.5625 0.328125 1.90625 0.328125q1.296875 0 2.859375 -0.328125q1.5625 -0.34375 2.421875 -0.71875l0.71875 2.15625q-1.15625 0.859375 -3.71875 1.6875q-2.5625 0.8125 -4.671875 0.8125zm11.317291 -7.6875q0 -4.515625 4.515625 -6.640625q4.515625 -2.140625 11.421875 -2.28125l0 -1.34375q0 -2.265625 -0.484375 -3.546875q-0.46875 -1.296875 -1.65625 -1.890625q-1.171875 -0.609375 -3.328125 -0.609375q-2.453125 0 -4.40625 0.703125q-1.9375 0.6875 -3.84375 1.6875l-1.203125 -2.484375q0.625 -0.53125 2.296875 -1.390625q1.6875 -0.875 3.890625 -1.546875q2.203125 -0.671875 4.421875 -0.671875q3.40625 0 5.390625 0.9375q2.0 0.9375 2.859375 3.0q0.859375 2.0625 0.859375 5.515625l0 15.40625l2.84375 0l0 2.125q-0.96875 0.234375 -2.4375 0.46875q-1.453125 0.25 -2.5625 0.25q-1.34375 0 -1.828125 -0.421875q-0.46875 -0.40625 -0.46875 -1.796875l0 -1.578125q-1.453125 1.4375 -3.546875 2.640625q-2.078125 1.203125 -4.71875 1.203125q-3.453125 0 -5.734375 -1.984375q-2.28125 -2.0 -2.28125 -5.75zm10.078125 4.46875q1.25 0 2.875 -0.765625q1.640625 -0.765625 2.984375 -1.828125l0 -8.25q-5.234375 0 -7.90625 1.609375q-2.65625 1.59375 -2.65625 4.1875q0 2.59375 1.265625 3.828125q1.28125 1.21875 3.4375 1.21875zm25.06868 3.21875q-2.75 0 -4.09375 -1.25q-1.34375 -1.25 -1.34375 -4.28125l0 -18.421875l-3.453125 0l0 -2.15625q0.25 -0.0625 1.34375 -0.34375q1.109375 -0.28125 1.484375 -0.53125q0.78125 -0.421875 1.203125 -1.71875q0.390625 -0.921875 0.90625 -2.9375q0.53125 -2.015625 0.640625 -2.390625l2.828125 0l0.09375 6.90625l8.015625 0l0 3.171875l-8.015625 0l0 14.734375q0 2.734375 0.15625 3.84375q0.171875 1.09375 0.71875 1.4375q0.5625 0.328125 1.90625 0.328125q1.296875 0 2.859375 -0.328125q1.5625 -0.34375 2.421875 -0.71875l0.71875 2.15625q-1.15625 0.859375 -3.71875 1.6875q-2.5625 0.8125 -4.671875 0.8125zm23.129791 0.046875q-5.8125 0 -8.859375 -3.796875q-3.046875 -3.796875 -3.046875 -10.125q0 -4.171875 1.578125 -7.34375q1.59375 -3.171875 4.4375 -4.890625q2.859375 -1.734375 6.515625 -1.734375q4.46875 0 6.9375 2.46875q2.46875 2.46875 2.609375 7.078125q0 2.9375 -0.328125 4.46875l-16.515625 0q0.09375 4.75 2.203125 7.65625q2.109375 2.90625 6.0 2.90625q1.921875 0 4.0 -0.6875q2.09375 -0.703125 3.25 -1.671875l0.90625 2.109375q-1.390625 1.453125 -4.125 2.515625q-2.734375 1.046875 -5.5625 1.046875zm4.890625 -16.421875q0.15625 -1.0 0.15625 -2.0625q-0.0625 -3.125 -1.328125 -4.921875q-1.265625 -1.796875 -4.0 -1.796875q-2.796875 0 -4.453125 2.015625q-1.65625 2.015625 -1.890625 6.765625l11.515625 0zm20.784943 2.5q0 -4.328125 1.78125 -7.484375q1.78125 -3.171875 4.671875 -4.828125q2.90625 -1.65625 6.21875 -1.65625q6.046875 0 9.09375 3.84375q3.046875 3.828125 3.046875 10.078125q0 4.359375 -1.78125 7.53125q-1.765625 3.171875 -4.671875 4.8125q-2.90625 1.625 -6.21875 1.625q-6.046875 0 -9.09375 -3.84375q-3.046875 -3.84375 -3.046875 -10.078125zm12.4375 11.1875q3.3125 0 5.078125 -2.734375q1.78125 -2.75 1.78125 -8.125q0 -5.328125 -1.640625 -8.4375q-1.625 -3.125 -5.21875 -3.125q-3.3125 0 -5.109375 2.734375q-1.796875 2.734375 -1.796875 8.109375q0 5.328125 1.671875 8.453125q1.6875 3.125 5.234375 3.125zm20.590302 -21.265625l-4.515625 0l0 -2.21875l4.515625 -0.90625l0 -2.25q0 -2.984375 1.5625 -5.46875q1.5625 -2.5 4.078125 -3.96875q2.515625 -1.46875 5.34375 -1.46875q1.640625 0 2.84375 0.4375l0 4.796875q-0.4375 -0.375 -1.71875 -0.734375q-1.265625 -0.359375 -2.796875 -0.359375q-2.25 0 -3.296875 1.171875q-1.03125 1.171875 -1.03125 4.046875l0 3.796875l6.625 0l0 3.125l-6.625 0l0 20.734375l5.328125 0.375l0 2.359375l-14.390625 0l0 -2.359375l4.078125 -0.421875l0 -20.6875zm52.6073 23.46875q-0.8125 0 -2.09375 -1.9375q-1.265625 -1.953125 -3.625 -6.125q-0.28125 -0.53125 -1.609375 -2.859375q-1.3125 -2.328125 -2.4375 -4.0q-1.125 -1.6875 -2.0 -2.640625l-4.84375 5.46875l0 9.265625l4.375 0.46875l0 2.359375l-13.5 0l0 -2.359375l3.984375 -0.46875l0 -29.859375l-3.921875 -0.578125l0 -2.40625l13.046875 0l0 2.40625l-3.984375 0.578125l0 16.796875l14.109375 -16.796875l-4.03125 -0.578125l0 -2.40625l11.859375 0l0 2.40625l-3.703125 0.578125l-10.359375 11.609375q1.671875 1.453125 3.5625 4.1875q1.90625 2.734375 4.640625 7.046875q2.359375 3.703125 3.4375 5.265625q1.078125 1.546875 1.703125 1.703125l2.25 0.515625l0 2.359375l-6.859375 0zm8.9730835 -7.203125q0 -4.515625 4.515625 -6.640625q4.515625 -2.140625 11.421875 -2.28125l0 -1.34375q0 -2.265625 -0.484375 -3.546875q-0.46875 -1.296875 -1.65625 -1.890625q-1.171875 -0.609375 -3.328125 -0.609375q-2.453125 0 -4.40625 0.703125q-1.9375 0.6875 -3.84375 1.6875l-1.203125 -2.484375q0.625 -0.53125 2.296875 -1.390625q1.6875 -0.875 3.890625 -1.546875q2.203125 -0.671875 4.421875 -0.671875q3.40625 0 5.390625 0.9375q2.0 0.9375 2.859375 3.0q0.859375 2.0625 0.859375 5.515625l0 15.40625l2.84375 0l0 2.125q-0.96875 0.234375 -2.4375 0.46875q-1.453125 0.25 -2.5625 0.25q-1.34375 0 -1.828125 -0.421875q-0.46875 -0.40625 -0.46875 -1.796875l0 -1.578125q-1.453125 1.4375 -3.546875 2.640625q-2.078125 1.203125 -4.71875 1.203125q-3.453125 0 -5.734375 -1.984375q-2.28125 -2.0 -2.28125 -5.75zm10.078125 4.46875q1.25 0 2.875 -0.765625q1.640625 -0.765625 2.984375 -1.828125l0 -8.25q-5.234375 0 -7.90625 1.609375q-2.65625 1.59375 -2.65625 4.1875q0 2.59375 1.265625 3.828125q1.28125 1.21875 3.4375 1.21875zm20.693665 -20.734375l-4.515625 0l0 -2.21875l4.515625 -0.90625l0 -2.25q0 -2.984375 1.5625 -5.46875q1.5625 -2.5 4.078125 -3.96875q2.515625 -1.46875 5.34375 -1.46875q1.640625 0 2.84375 0.4375l0 4.796875q-0.4375 -0.375 -1.71875 -0.734375q-1.265625 -0.359375 -2.796875 -0.359375q-2.25 0 -3.296875 1.171875q-1.03125 1.171875 -1.03125 4.046875l0 3.796875l6.625 0l0 3.125l-6.625 0l0 20.734375l5.328125 0.375l0 2.359375l-14.390625 0l0 -2.359375l4.078125 -0.421875l0 -20.6875zm17.903168 -12.34375l-3.75 -0.53125l0 -2.0625l7.640625 -0.90625l0.046875 0l1.0625 0.71875l0 23.46875l-0.109375 2.84375l11.09375 -11.484375l-3.59375 -0.671875l0 -2.203125l11.609375 0l0 2.203125l-3.796875 0.671875l-7.046875 6.875l9.109375 14.15625l2.984375 0.375l0 2.359375l-11.671875 0l0 -2.359375l3.03125 -0.421875l-6.765625 -11.140625l-4.953125 4.890625l0.109375 2.453125l0 3.796875l3.40625 0.421875l0 2.359375l-11.421875 0l0 -2.359375l3.015625 -0.421875l0 -33.03125zm26.253204 28.609375q0 -4.515625 4.515625 -6.640625q4.515625 -2.140625 11.421875 -2.28125l0 -1.34375q0 -2.265625 -0.484375 -3.546875q-0.46875 -1.296875 -1.65625 -1.890625q-1.171875 -0.609375 -3.328125 -0.609375q-2.453125 0 -4.40625 0.703125q-1.9375 0.6875 -3.84375 1.6875l-1.203125 -2.484375q0.625 -0.53125 2.296875 -1.390625q1.6875 -0.875 3.890625 -1.546875q2.203125 -0.671875 4.421875 -0.671875q3.40625 0 5.390625 0.9375q2.0 0.9375 2.859375 3.0q0.859375 2.0625 0.859375 5.515625l0 15.40625l2.84375 0l0 2.125q-0.96875 0.234375 -2.4375 0.46875q-1.453125 0.25 -2.5625 0.25q-1.34375 0 -1.828125 -0.421875q-0.46875 -0.40625 -0.46875 -1.796875l0 -1.578125q-1.453125 1.4375 -3.546875 2.640625q-2.078125 1.203125 -4.71875 1.203125q-3.453125 0 -5.734375 -1.984375q-2.28125 -2.0 -2.28125 -5.75zm10.078125 4.46875q1.25 0 2.875 -0.765625q1.640625 -0.765625 2.984375 -1.828125l0 -8.25q-5.234375 0 -7.90625 1.609375q-2.65625 1.59375 -2.65625 4.1875q0 2.59375 1.265625 3.828125q1.28125 1.21875 3.4375 1.21875zm28.225952 -4.46875q0 -4.515625 4.515625 -6.640625q4.515625 -2.140625 11.421875 -2.28125l0 -1.34375q0 -2.265625 -0.484375 -3.546875q-0.46875 -1.296875 -1.65625 -1.890625q-1.171875 -0.609375 -3.328125 -0.609375q-2.453125 0 -4.40625 0.703125q-1.9375 0.6875 -3.84375 1.6875l-1.203125 -2.484375q0.625 -0.53125 2.296875 -1.390625q1.6875 -0.875 3.890625 -1.546875q2.203125 -0.671875 4.421875 -0.671875q3.40625 0 5.390625 0.9375q2.0 0.9375 2.859375 3.0q0.859375 2.0625 0.859375 5.515625l0 15.40625l2.84375 0l0 2.125q-0.96875 0.234375 -2.4375 0.46875q-1.453125 0.25 -2.5625 0.25q-1.34375 0 -1.828125 -0.421875q-0.46875 -0.40625 -0.46875 -1.796875l0 -1.578125q-1.453125 1.4375 -3.546875 2.640625q-2.078125 1.203125 -4.71875 1.203125q-3.453125 0 -5.734375 -1.984375q-2.28125 -2.0 -2.28125 -5.75zm10.078125 4.46875q1.25 0 2.875 -0.765625q1.640625 -0.765625 2.984375 -1.828125l0 -8.25q-5.234375 0 -7.90625 1.609375q-2.65625 1.59375 -2.65625 4.1875q0 2.59375 1.265625 3.828125q1.28125 1.21875 3.4375 1.21875zm19.74054 -20.203125l-3.46875 -0.875l0 -2.59375l6.8750305 -0.859375l0.140625 0l1.0 0.859375l0 2.015625l-0.046875 1.15625q1.734375 -1.53125 4.5625 -2.78125q2.828125 -1.25 5.421875 -1.25q3.03125 0 4.6875 1.15625q1.65625 1.15625 2.328125 3.53125q0.671875 2.375 0.671875 6.40625l0 13.4375l3.359375 0.328125l0 2.40625l-11.375 0l0 -2.359375l2.96875 -0.375l0 -13.484375q0 -2.84375 -0.390625 -4.4375q-0.375 -1.609375 -1.4375 -2.40625q-1.046875 -0.796875 -3.0625 -0.796875q-1.734375 0 -3.703125 0.875q-1.96875 0.859375 -3.5 2.015625l0 18.1875l3.265625 0.421875l0 2.359375l-11.3281555 0l0 -2.359375l3.03125 -0.421875l0 -20.15625zm39.356476 23.46875q-2.890625 0 -5.296875 -1.4375q-2.390625 -1.453125 -3.8125 -4.421875q-1.40625 -2.96875 -1.40625 -7.34375q0 -4.078125 1.671875 -7.4375q1.6875 -3.359375 4.828125 -5.296875q3.140625 -1.953125 7.421875 -1.953125q2.453125 0 4.46875 0.53125l0 -8.984375l-4.90625 -0.578125l0 -2.0625l8.640625 -0.859375l0.140625 0l1.0625 0.765625l0 36.09375l2.78125 0l0 2.21875q-1.53125 0.328125 -2.65625 0.515625q-1.125 0.203125 -2.375 0.203125q-1.25 0 -1.78125 -0.4375q-0.53125 -0.4375 -0.53125 -1.828125l0 -1.53125q-1.34375 1.625 -3.53125 2.734375q-2.171875 1.109375 -4.71875 1.109375zm1.921875 -3.40625q1.859375 0 3.484375 -0.84375q1.640625 -0.84375 2.46875 -1.9375l0 -17.578125q-0.390625 -0.578125 -1.8125 -1.03125q-1.40625 -0.453125 -3.0 -0.453125q-3.734375 0 -5.96875 2.859375q-2.234375 2.84375 -2.234375 8.796875q0 5.1875 1.96875 7.6875q1.96875 2.5 5.09375 2.5zm45.449707 3.40625q-5.1875 0 -8.953125 -2.296875q-3.765625 -2.3125 -5.734375 -6.359375q-1.96875 -4.0625 -1.96875 -9.203125q0 -5.90625 2.328125 -10.125q2.328125 -4.234375 6.453125 -6.40625q4.125 -2.1875 9.40625 -2.1875q4.859375 0 11.1875 1.484375l-0.421875 8.3125l-3.421875 0l-1.140625 -5.765625q-0.671875 -0.53125 -2.28125 -1.0q-1.609375 -0.484375 -4.296875 -0.484375q-3.5 0 -6.203125 1.734375q-2.6875 1.71875 -4.203125 5.125q-1.5 3.40625 -1.5 8.25q0 4.46875 1.21875 8.171875q1.234375 3.6875 3.75 5.921875q2.515625 2.234375 6.171875 2.234375q2.296875 0 4.359375 -0.546875q2.0625 -0.5625 3.171875 -1.46875l0 -10.703125l-6.046875 -0.484375l0 -2.828125l14.015625 0l0 2.828125l-2.78125 0.4375l0 12.90625q-1.0625 0.046875 -3.515625 0.8125q-2.484375 0.765625 -4.703125 1.203125q-2.203125 0.4375 -4.890625 0.4375zm18.95758 -13.921875q0 -4.328125 1.78125 -7.484375q1.78125 -3.171875 4.671875 -4.828125q2.90625 -1.65625 6.21875 -1.65625q6.046875 0 9.09375 3.84375q3.046875 3.828125 3.046875 10.078125q0 4.359375 -1.78125 7.53125q-1.765625 3.171875 -4.671875 4.8125q-2.90625 1.625 -6.21875 1.625q-6.046875 0 -9.09375 -3.84375q-3.046875 -3.84375 -3.046875 -10.078125zm12.4375 11.1875q3.3125 0 5.078125 -2.734375q1.78125 -2.75 1.78125 -8.125q0 -5.328125 -1.640625 -8.4375q-1.625 -3.125 -5.21875 -3.125q-3.3125 0 -5.109375 2.734375q-1.796875 2.734375 -1.796875 8.109375q0 5.328125 1.671875 8.453125q1.6875 3.125 5.234375 3.125z" fill-rule="nonzero"/><path fill="#000000" fill-opacity="0.0" d="m32.72441 197.22417l445.4173 0l0 77.511795l-445.4173 0z" fill-rule="evenodd"/><path fill="#626b73" d="m45.490036 225.06354l7.1875 0l0 1.640625l-9.1875 0l0 -15.15625l2.0 0l0 13.515625zm11.257614 1.640625l-1.921875 0l0 -11.265625l1.921875 0l0 11.265625zm-2.078125 -14.25q0 -0.46875 0.28125 -0.796875q0.296875 -0.328125 0.859375 -0.328125q0.5625 0 0.84375 0.328125q0.296875 0.328125 0.296875 0.796875q0 0.46875 -0.296875 0.78125q-0.28125 0.3125 -0.84375 0.3125q-0.5625 0 -0.859375 -0.3125q-0.28125 -0.3125 -0.28125 -0.78125zm14.707077 8.734375q0 2.59375 -1.1875 4.15625q-1.1875 1.5625 -3.1875 1.5625q-2.140625 0 -3.296875 -1.5l-0.09375 1.296875l-1.78125 0l0 -16.0l1.9375 0l0 5.96875q1.15625 -1.4375 3.203125 -1.4375q2.0625 0 3.234375 1.546875q1.171875 1.546875 1.171875 4.25l0 0.15625zm-1.921875 -0.21875q0 -1.96875 -0.765625 -3.03125q-0.765625 -1.078125 -2.1875 -1.078125q-1.90625 0 -2.734375 1.765625l0 4.875q0.875 1.78125 2.75 1.78125q1.390625 0 2.15625 -1.078125q0.78125 -1.078125 0.78125 -3.234375zm9.793961 -3.8125q-0.4375 -0.0625 -0.953125 -0.0625q-1.890625 0 -2.5625 1.609375l0 8.0l-1.9375 0l0 -11.265625l1.875 0l0.03125 1.296875q0.953125 -1.5 2.6875 -1.5q0.5625 0 0.859375 0.140625l0 1.78125zm8.3159485 9.546875q-0.171875 -0.328125 -0.28125 -1.1875q-1.34375 1.390625 -3.203125 1.390625q-1.671875 0 -2.734375 -0.9375q-1.0625 -0.9375 -1.0625 -2.390625q0 -1.765625 1.328125 -2.734375q1.34375 -0.96875 3.765625 -0.96875l1.875 0l0 -0.890625q0 -1.015625 -0.609375 -1.609375q-0.59375 -0.59375 -1.765625 -0.59375q-1.03125 0 -1.734375 0.515625q-0.703125 0.515625 -0.703125 1.265625l-1.9375 0q0 -0.84375 0.59375 -1.625q0.609375 -0.796875 1.625 -1.25q1.03125 -0.453125 2.265625 -0.453125q1.953125 0 3.046875 0.96875q1.109375 0.96875 1.15625 2.671875l0 5.1875q0 1.5625 0.390625 2.46875l0 0.171875l-2.015625 0zm-3.203125 -1.46875q0.90625 0 1.71875 -0.46875q0.8125 -0.46875 1.171875 -1.21875l0 -2.3125l-1.5 0q-3.546875 0 -3.546875 2.078125q0 0.90625 0.59375 1.421875q0.609375 0.5 1.5625 0.5zm13.288834 -8.078125q-0.4375 -0.0625 -0.953125 -0.0625q-1.890625 0 -2.5625 1.609375l0 8.0l-1.9375 0l0 -11.265625l1.875 0l0.03125 1.296875q0.953125 -1.5 2.6875 -1.5q0.5625 0 0.859375 0.140625l0 1.78125zm3.8576202 9.546875l-1.921875 0l0 -11.265625l1.921875 0l0 11.265625zm-2.078125 -14.25q0 -0.46875 0.28125 -0.796875q0.296875 -0.328125 0.859375 -0.328125q0.5625 0 0.84375 0.328125q0.296875 0.328125 0.296875 0.796875q0 0.46875 -0.296875 0.78125q-0.28125 0.3125 -0.84375 0.3125q-0.5625 0 -0.859375 -0.3125q-0.28125 -0.3125 -0.28125 -0.78125zm9.847702 14.453125q-2.296875 0 -3.734375 -1.5q-1.4375 -1.5 -1.4375 -4.03125l0 -0.34375q0 -1.6875 0.640625 -3.0q0.640625 -1.3125 1.78125 -2.046875q1.15625 -0.75 2.5 -0.75q2.203125 0 3.421875 1.453125q1.21875 1.4375 1.21875 4.125l0 0.8125l-7.640625 0q0.046875 1.65625 0.96875 2.6875q0.9375 1.03125 2.375 1.03125q1.03125 0 1.734375 -0.421875q0.703125 -0.421875 1.234375 -1.109375l1.1875 0.921875q-1.421875 2.171875 -4.25 2.171875zm-0.25 -10.09375q-1.15625 0 -1.953125 0.84375q-0.796875 0.84375 -0.984375 2.375l5.65625 0l0 -0.140625q-0.09375 -1.46875 -0.796875 -2.265625q-0.703125 -0.8125 -1.921875 -0.8125zm13.424332 6.90625q0 -0.78125 -0.59375 -1.21875q-0.578125 -0.4375 -2.046875 -0.75q-1.453125 -0.3125 -2.3125 -0.75q-0.859375 -0.4375 -1.28125 -1.03125q-0.40625 -0.609375 -0.40625 -1.4375q0 -1.390625 1.171875 -2.34375q1.171875 -0.953125 3.0 -0.953125q1.90625 0 3.09375 0.984375q1.203125 0.984375 1.203125 2.53125l-1.9375 0q0 -0.796875 -0.671875 -1.359375q-0.671875 -0.578125 -1.6875 -0.578125q-1.0625 0 -1.65625 0.453125q-0.59375 0.453125 -0.59375 1.203125q0 0.6875 0.546875 1.046875q0.5625 0.359375 2.0 0.6875q1.453125 0.3125 2.34375 0.765625q0.890625 0.4375 1.328125 1.078125q0.4375 0.625 0.4375 1.53125q0 1.515625 -1.21875 2.421875q-1.203125 0.90625 -3.125 0.90625q-1.359375 0 -2.40625 -0.46875q-1.03125 -0.484375 -1.625 -1.34375q-0.59375 -0.859375 -0.59375 -1.859375l1.9375 0q0.046875 0.96875 0.765625 1.546875q0.734375 0.5625 1.921875 0.5625q1.09375 0 1.75 -0.4375q0.65625 -0.453125 0.65625 -1.1875zm4.3723145 6.0l-1.09375 -0.75q0.984375 -1.359375 1.03125 -2.8125l0 -1.734375l1.875 0l0 1.515625q0 1.046875 -0.515625 2.09375q-0.515625 1.0625 -1.296875 1.6875zm12.153946 -17.015625l0 2.734375l2.09375 0l0 1.484375l-2.09375 0l0 6.984375q0 0.6875 0.28125 1.03125q0.28125 0.328125 0.953125 0.328125q0.328125 0 0.921875 -0.125l0 1.5625q-0.765625 0.203125 -1.484375 0.203125q-1.296875 0 -1.953125 -0.78125q-0.65625 -0.78125 -0.65625 -2.21875l0 -6.984375l-2.046875 0l0 -1.484375l2.046875 0l0 -2.734375l1.9375 0zm9.029556 14.203125q-2.296875 0 -3.734375 -1.5q-1.4375 -1.5 -1.4375 -4.03125l0 -0.34375q0 -1.6875 0.640625 -3.0q0.640625 -1.3125 1.78125 -2.046875q1.15625 -0.75 2.5 -0.75q2.203125 0 3.421875 1.453125q1.21875 1.4375 1.21875 4.125l0 0.8125l-7.640625 0q0.046875 1.65625 0.96875 2.6875q0.9375 1.03125 2.375 1.03125q1.03125 0 1.734375 -0.421875q0.703125 -0.421875 1.234375 -1.109375l1.1875 0.921875q-1.421875 2.171875 -4.25 2.171875zm-0.25 -10.09375q-1.15625 0 -1.953125 0.84375q-0.796875 0.84375 -0.984375 2.375l5.65625 0l0 -0.140625q-0.09375 -1.46875 -0.796875 -2.265625q-0.703125 -0.8125 -1.921875 -0.8125zm13.424332 6.90625q0 -0.78125 -0.59375 -1.21875q-0.578125 -0.4375 -2.046875 -0.75q-1.453125 -0.3125 -2.3125 -0.75q-0.859375 -0.4375 -1.28125 -1.03125q-0.40625 -0.609375 -0.40625 -1.4375q0 -1.390625 1.171875 -2.34375q1.171875 -0.953125 3.0 -0.953125q1.90625 0 3.09375 0.984375q1.203125 0.984375 1.203125 2.53125l-1.9375 0q0 -0.796875 -0.671875 -1.359375q-0.671875 -0.578125 -1.6875 -0.578125q-1.0625 0 -1.65625 0.453125q-0.59375 0.453125 -0.59375 1.203125q0 0.6875 0.546875 1.046875q0.5625 0.359375 2.0 0.6875q1.453125 0.3125 2.34375 0.765625q0.890625 0.4375 1.328125 1.078125q0.4375 0.625 0.4375 1.53125q0 1.515625 -1.21875 2.421875q-1.203125 0.90625 -3.125 0.90625q-1.359375 0 -2.40625 -0.46875q-1.03125 -0.484375 -1.625 -1.34375q-0.59375 -0.859375 -0.59375 -1.859375l1.9375 0q0.046875 0.96875 0.765625 1.546875q0.734375 0.5625 1.921875 0.5625q1.09375 0 1.75 -0.4375q0.65625 -0.453125 0.65625 -1.1875zm7.0598145 -11.015625l0 2.734375l2.09375 0l0 1.484375l-2.09375 0l0 6.984375q0 0.6875 0.28125 1.03125q0.28125 0.328125 0.953125 0.328125q0.328125 0 0.921875 -0.125l0 1.5625q-0.765625 0.203125 -1.484375 0.203125q-1.296875 0 -1.953125 -0.78125q-0.65625 -0.78125 -0.65625 -2.21875l0 -6.984375l-2.046875 0l0 -1.484375l2.046875 0l0 -2.734375l1.9375 0zm6.4358063 14.0l-1.921875 0l0 -11.265625l1.921875 0l0 11.265625zm-2.078125 -14.25q0 -0.46875 0.28125 -0.796875q0.296875 -0.328125 0.859375 -0.328125q0.5625 0 0.84375 0.328125q0.296875 0.328125 0.296875 0.796875q0 0.46875 -0.296875 0.78125q-0.28125 0.3125 -0.84375 0.3125q-0.5625 0 -0.859375 -0.3125q-0.28125 -0.3125 -0.28125 -0.78125zm6.988327 2.984375l0.0625 1.40625q1.296875 -1.609375 3.375 -1.609375q3.578125 0 3.609375 4.015625l0 7.453125l-1.9375 0l0 -7.453125q0 -1.21875 -0.546875 -1.796875q-0.546875 -0.59375 -1.703125 -0.59375q-0.9375 0 -1.65625 0.5q-0.703125 0.5 -1.09375 1.3125l0 8.03125l-1.9375 0l0 -11.265625l1.828125 0zm9.48671 5.53125q0 -2.625 1.21875 -4.171875q1.21875 -1.5625 3.234375 -1.5625q2.0625 0 3.21875 1.453125l0.09375 -1.25l1.75 0l0 11.0q0 2.1875 -1.296875 3.4375q-1.296875 1.265625 -3.484375 1.265625q-1.21875 0 -2.390625 -0.53125q-1.15625 -0.515625 -1.765625 -1.421875l1.0 -1.15625q1.234375 1.53125 3.03125 1.53125q1.40625 0 2.1875 -0.796875q0.78125 -0.78125 0.78125 -2.21875l0 -0.96875q-1.15625 1.328125 -3.15625 1.328125q-1.96875 0 -3.203125 -1.59375q-1.21875 -1.59375 -1.21875 -4.34375zm1.9375 0.21875q0 1.90625 0.78125 3.0q0.78125 1.09375 2.1875 1.09375q1.828125 0 2.671875 -1.65625l0 -5.15625q-0.875 -1.609375 -2.65625 -1.609375q-1.40625 0 -2.203125 1.09375q-0.78125 1.09375 -0.78125 3.234375zm22.730179 5.515625q-0.171875 -0.328125 -0.28125 -1.1875q-1.34375 1.390625 -3.203125 1.390625q-1.671875 0 -2.734375 -0.9375q-1.0625 -0.9375 -1.0625 -2.390625q0 -1.765625 1.328125 -2.734375q1.34375 -0.96875 3.765625 -0.96875l1.875 0l0 -0.890625q0 -1.015625 -0.609375 -1.609375q-0.59375 -0.59375 -1.765625 -0.59375q-1.03125 0 -1.734375 0.515625q-0.703125 0.515625 -0.703125 1.265625l-1.9375 0q0 -0.84375 0.59375 -1.625q0.609375 -0.796875 1.625 -1.25q1.03125 -0.453125 2.265625 -0.453125q1.953125 0 3.046875 0.96875q1.109375 0.96875 1.15625 2.671875l0 5.1875q0 1.5625 0.390625 2.46875l0 0.171875l-2.015625 0zm-3.203125 -1.46875q0.90625 0 1.71875 -0.46875q0.8125 -0.46875 1.171875 -1.21875l0 -2.3125l-1.5 0q-3.546875 0 -3.546875 2.078125q0 0.90625 0.59375 1.421875q0.609375 0.5 1.5625 0.5zm9.663834 -9.796875l0.0625 1.40625q1.296875 -1.609375 3.375 -1.609375q3.578125 0 3.609375 4.015625l0 7.453125l-1.9375 0l0 -7.453125q0 -1.21875 -0.546875 -1.796875q-0.546875 -0.59375 -1.703125 -0.59375q-0.9375 0 -1.65625 0.5q-0.703125 0.5 -1.09375 1.3125l0 8.03125l-1.9375 0l0 -11.265625l1.828125 0zm9.471085 5.53125q0 -2.59375 1.234375 -4.15625q1.234375 -1.578125 3.21875 -1.578125q1.984375 0 3.140625 1.34375l0 -5.875l1.921875 0l0 16.0l-1.765625 0l-0.09375 -1.203125q-1.15625 1.40625 -3.21875 1.40625q-1.96875 0 -3.203125 -1.59375q-1.234375 -1.609375 -1.234375 -4.1875l0 -0.15625zm1.9375 0.21875q0 1.921875 0.78125 3.015625q0.796875 1.078125 2.1875 1.078125q1.84375 0 2.6875 -1.65625l0 -5.171875q-0.875 -1.59375 -2.65625 -1.59375q-1.421875 0 -2.21875 1.09375q-0.78125 1.09375 -0.78125 3.234375zm25.386414 0q0 2.59375 -1.1875 4.15625q-1.1875 1.5625 -3.1875 1.5625q-2.140625 0 -3.296875 -1.5l-0.09375 1.296875l-1.78125 0l0 -16.0l1.9375 0l0 5.96875q1.15625 -1.4375 3.203125 -1.4375q2.0625 0 3.234375 1.546875q1.171875 1.546875 1.171875 4.25l0 0.15625zm-1.921875 -0.21875q0 -1.96875 -0.765625 -3.03125q-0.765625 -1.078125 -2.1875 -1.078125q-1.90625 0 -2.734375 1.765625l0 4.875q0.875 1.78125 2.75 1.78125q1.390625 0 2.15625 -1.078125q0.78125 -1.078125 0.78125 -3.234375zm9.028336 5.9375q-2.296875 0 -3.734375 -1.5q-1.4375 -1.5 -1.4375 -4.03125l0 -0.34375q0 -1.6875 0.640625 -3.0q0.640625 -1.3125 1.78125 -2.046875q1.15625 -0.75 2.5 -0.75q2.203125 0 3.421875 1.453125q1.21875 1.4375 1.21875 4.125l0 0.8125l-7.640625 0q0.046875 1.65625 0.96875 2.6875q0.9375 1.03125 2.375 1.03125q1.03125 0 1.734375 -0.421875q0.703125 -0.421875 1.234375 -1.109375l1.1875 0.921875q-1.421875 2.171875 -4.25 2.171875zm-0.25 -10.09375q-1.15625 0 -1.953125 0.84375q-0.796875 0.84375 -0.984375 2.375l5.65625 0l0 -0.140625q-0.09375 -1.46875 -0.796875 -2.265625q-0.703125 -0.8125 -1.921875 -0.8125zm13.424316 6.90625q0 -0.78125 -0.59375 -1.21875q-0.578125 -0.4375 -2.046875 -0.75q-1.453125 -0.3125 -2.3125 -0.75q-0.859375 -0.4375 -1.28125 -1.03125q-0.40625 -0.609375 -0.40625 -1.4375q0 -1.390625 1.171875 -2.34375q1.171875 -0.953125 3.0 -0.953125q1.90625 0 3.09375 0.984375q1.203125 0.984375 1.203125 2.53125l-1.9375 0q0 -0.796875 -0.671875 -1.359375q-0.671875 -0.578125 -1.6875 -0.578125q-1.0625 0 -1.65625 0.453125q-0.59375 0.453125 -0.59375 1.203125q0 0.6875 0.546875 1.046875q0.5625 0.359375 2.0 0.6875q1.453125 0.3125 2.34375 0.765625q0.890625 0.4375 1.328125 1.078125q0.4375 0.625 0.4375 1.53125q0 1.515625 -1.21875 2.421875q-1.203125 0.90625 -3.125 0.90625q-1.359375 0 -2.40625 -0.46875q-1.03125 -0.484375 -1.625 -1.34375q-0.59375 -0.859375 -0.59375 -1.859375l1.9375 0q0.046875 0.96875 0.765625 1.546875q0.734375 0.5625 1.921875 0.5625q1.09375 0 1.75 -0.4375q0.65625 -0.453125 0.65625 -1.1875zm7.0598145 -11.015625l0 2.734375l2.09375 0l0 1.484375l-2.09375 0l0 6.984375q0 0.6875 0.28125 1.03125q0.28125 0.328125 0.953125 0.328125q0.328125 0 0.921875 -0.125l0 1.5625q-0.765625 0.203125 -1.484375 0.203125q-1.296875 0 -1.953125 -0.78125q-0.65625 -0.78125 -0.65625 -2.21875l0 -6.984375l-2.046875 0l0 -1.484375l2.046875 0l0 -2.734375l1.9375 0zm19.137634 8.484375q0 2.578125 -1.171875 4.15625q-1.171875 1.5625 -3.1875 1.5625q-2.046875 0 -3.21875 -1.296875l0 5.421875l-1.9375 0l0 -15.59375l1.765625 0l0.09375 1.25q1.171875 -1.453125 3.265625 -1.453125q2.03125 0 3.203125 1.53125q1.1875 1.515625 1.1875 4.25l0 0.171875zm-1.921875 -0.21875q0 -1.90625 -0.8125 -3.0q-0.8125 -1.109375 -2.21875 -1.109375q-1.75 0 -2.625 1.546875l0 5.390625q0.859375 1.546875 2.640625 1.546875q1.390625 0 2.203125 -1.09375q0.8125 -1.109375 0.8125 -3.28125zm9.825226 -3.8125q-0.4375 -0.0625 -0.953125 -0.0625q-1.890625 0 -2.5625 1.609375l0 8.0l-1.9375 0l0 -11.265625l1.875 0l0.03125 1.296875q0.953125 -1.5 2.6875 -1.5q0.5625 0 0.859375 0.140625l0 1.78125zm8.3159485 9.546875q-0.171875 -0.328125 -0.28125 -1.1875q-1.34375 1.390625 -3.203125 1.390625q-1.671875 0 -2.734375 -0.9375q-1.0625 -0.9375 -1.0625 -2.390625q0 -1.765625 1.328125 -2.734375q1.34375 -0.96875 3.765625 -0.96875l1.875 0l0 -0.890625q0 -1.015625 -0.609375 -1.609375q-0.59375 -0.59375 -1.765625 -0.59375q-1.03125 0 -1.734375 0.515625q-0.703125 0.515625 -0.703125 1.265625l-1.9375 0q0 -0.84375 0.59375 -1.625q0.609375 -0.796875 1.625 -1.25q1.03125 -0.453125 2.265625 -0.453125q1.953125 0 3.046875 0.96875q1.109375 0.96875 1.15625 2.671875l0 5.1875q0 1.5625 0.390625 2.46875l0 0.171875l-2.015625 0zm-3.203125 -1.46875q0.90625 0 1.71875 -0.46875q0.8125 -0.46875 1.171875 -1.21875l0 -2.3125l-1.5 0q-3.546875 0 -3.546875 2.078125q0 0.90625 0.59375 1.421875q0.609375 0.5 1.5625 0.5zm12.366943 0.109375q1.03125 0 1.796875 -0.625q0.765625 -0.625 0.859375 -1.5625l1.8125 0q-0.046875 0.96875 -0.671875 1.84375q-0.609375 0.875 -1.640625 1.390625q-1.015625 0.515625 -2.15625 0.515625q-2.3125 0 -3.671875 -1.53125q-1.359375 -1.53125 -1.359375 -4.203125l0 -0.328125q0 -1.640625 0.609375 -2.921875q0.609375 -1.28125 1.734375 -1.984375q1.125 -0.703125 2.671875 -0.703125q1.890625 0 3.140625 1.140625q1.265625 1.125 1.34375 2.9375l-1.8125 0q-0.09375 -1.09375 -0.84375 -1.796875q-0.734375 -0.703125 -1.828125 -0.703125q-1.46875 0 -2.28125 1.0625q-0.796875 1.046875 -0.796875 3.046875l0 0.359375q0 1.953125 0.796875 3.015625q0.796875 1.046875 2.296875 1.046875zm9.25769 -12.640625l0 2.734375l2.09375 0l0 1.484375l-2.09375 0l0 6.984375q0 0.6875 0.28125 1.03125q0.28125 0.328125 0.953125 0.328125q0.328125 0 0.921875 -0.125l0 1.5625q-0.765625 0.203125 -1.484375 0.203125q-1.296875 0 -1.953125 -0.78125q-0.65625 -0.78125 -0.65625 -2.21875l0 -6.984375l-2.046875 0l0 -1.484375l2.046875 0l0 -2.734375l1.9375 0zm6.435791 14.0l-1.921875 0l0 -11.265625l1.921875 0l0 11.265625zm-2.078125 -14.25q0 -0.46875 0.28125 -0.796875q0.296875 -0.328125 0.859375 -0.328125q0.5625 0 0.84375 0.328125q0.296875 0.328125 0.296875 0.796875q0 0.46875 -0.296875 0.78125q-0.28125 0.3125 -0.84375 0.3125q-0.5625 0 -0.859375 -0.3125q-0.28125 -0.3125 -0.28125 -0.78125zm9.691467 12.890625q1.03125 0 1.796875 -0.625q0.765625 -0.625 0.859375 -1.5625l1.8125 0q-0.046875 0.96875 -0.671875 1.84375q-0.609375 0.875 -1.640625 1.390625q-1.015625 0.515625 -2.15625 0.515625q-2.3125 0 -3.671875 -1.53125q-1.359375 -1.53125 -1.359375 -4.203125l0 -0.328125q0 -1.640625 0.609375 -2.921875q0.609375 -1.28125 1.734375 -1.984375q1.125 -0.703125 2.671875 -0.703125q1.890625 0 3.140625 1.140625q1.265625 1.125 1.34375 2.9375l-1.8125 0q-0.09375 -1.09375 -0.84375 -1.796875q-0.734375 -0.703125 -1.828125 -0.703125q-1.46875 0 -2.28125 1.0625q-0.796875 1.046875 -0.796875 3.046875l0 0.359375q0 1.953125 0.796875 3.015625q0.796875 1.046875 2.296875 1.046875zm11.32019 1.5625q-2.296875 0 -3.734375 -1.5q-1.4375 -1.5 -1.4375 -4.03125l0 -0.34375q0 -1.6875 0.640625 -3.0q0.640625 -1.3125 1.78125 -2.046875q1.15625 -0.75 2.5 -0.75q2.203125 0 3.421875 1.453125q1.21875 1.4375 1.21875 4.125l0 0.8125l-7.640625 0q0.046875 1.65625 0.96875 2.6875q0.9375 1.03125 2.375 1.03125q1.03125 0 1.734375 -0.421875q0.703125 -0.421875 1.234375 -1.109375l1.1875 0.921875q-1.421875 2.171875 -4.25 2.171875zm-0.25 -10.09375q-1.15625 0 -1.953125 0.84375q-0.796875 0.84375 -0.984375 2.375l5.65625 0l0 -0.140625q-0.09375 -1.46875 -0.796875 -2.265625q-0.703125 -0.8125 -1.921875 -0.8125zm13.424316 6.90625q0 -0.78125 -0.59375 -1.21875q-0.578125 -0.4375 -2.046875 -0.75q-1.453125 -0.3125 -2.3125 -0.75q-0.859375 -0.4375 -1.28125 -1.03125q-0.40625 -0.609375 -0.40625 -1.4375q0 -1.390625 1.171875 -2.34375q1.171875 -0.953125 3.0 -0.953125q1.90625 0 3.09375 0.984375q1.203125 0.984375 1.203125 2.53125l-1.9375 0q0 -0.796875 -0.671875 -1.359375q-0.671875 -0.578125 -1.6875 -0.578125q-1.0625 0 -1.65625 0.453125q-0.59375 0.453125 -0.59375 1.203125q0 0.6875 0.546875 1.046875q0.5625 0.359375 2.0 0.6875q1.453125 0.3125 2.34375 0.765625q0.890625 0.4375 1.328125 1.078125q0.4375 0.625 0.4375 1.53125q0 1.515625 -1.21875 2.421875q-1.203125 0.90625 -3.125 0.90625q-1.359375 0 -2.40625 -0.46875q-1.03125 -0.484375 -1.625 -1.34375q-0.59375 -0.859375 -0.59375 -1.859375l1.9375 0q0.046875 0.96875 0.765625 1.546875q0.734375 0.5625 1.921875 0.5625q1.09375 0 1.75 -0.4375q0.65625 -0.453125 0.65625 -1.1875z" fill-rule="nonzero"/></g></svg>